<?xml version="1.0" encoding="UTF-8" standalone="no"?>
<!-- Created with Inkscape (http://www.inkscape.org/) -->

<svg
   width="14.263663mm"
   height="3.9969671mm"
   viewBox="0 0 14.263663 3.9969671"
   version="1.1"
   id="svg5"
   inkscape:version="1.1.1 (c3084ef, 2021-09-22)"
   sodipodi:docname="version_graphic.svg"
   xmlns:inkscape="http://www.inkscape.org/namespaces/inkscape"
   xmlns:sodipodi="http://sodipodi.sourceforge.net/DTD/sodipodi-0.dtd"
   xmlns="http://www.w3.org/2000/svg"
   xmlns:svg="http://www.w3.org/2000/svg">
  <sodipodi:namedview
     id="namedview7"
     pagecolor="#505050"
     bordercolor="#eeeeee"
     borderopacity="1"
     inkscape:pageshadow="0"
     inkscape:pageopacity="0"
     inkscape:pagecheckerboard="0"
     inkscape:document-units="mm"
     showgrid="false"
     inkscape:zoom="19.495488"
     inkscape:cx="25.416137"
     inkscape:cy="12.054071"
     inkscape:window-width="1800"
     inkscape:window-height="1042"
     inkscape:window-x="0"
     inkscape:window-y="44"
     inkscape:window-maximized="1"
     inkscape:current-layer="layer1"
     fit-margin-top="0"
     fit-margin-left="0"
     fit-margin-right="0"
     fit-margin-bottom="0"
     showborder="false" />
  <defs
     id="defs2" />
  <g
     inkscape:label="Layer 1"
     inkscape:groupmode="layer"
     id="layer1"
     transform="translate(-63.873018,-42.58833)">
    <g
       aria-label="2.0"
       id="text1508"
       style="font-weight:bold;font-size:7.7611px;line-height:1.25;font-family:Bitsumishi;-inkscape-font-specification:'Bitsumishi Bold';stroke-width:0.264583">
      <path
         d="m 72.353813,43.822345 q 0,0.504472 -0.302683,0.853721 -0.325966,0.372533 -0.822676,0.372533 h -1.063271 q -0.450144,0 -0.651932,0.09313 -0.287161,0.1397 -0.34925,0.512233 h 3.003546 v 0.931332 h -4.028011 l -0.0078,-0.473427 q -0.03104,-1.994603 2.033408,-1.994603 h 1.063271 q 0.201788,0 0.201788,-0.302683 0,-0.294922 -0.201788,-0.294922 H 68.325802 V 42.58833 h 2.902652 q 0.49671,0 0.822676,0.372533 0.302683,0.357011 0.302683,0.861482 z"
         id="path6761" />
      <path
         d="m 73.857526,46.585297 h -1.117598 v -0.931332 h 1.117598 z"
         id="path6763" />
      <path
         d="m 78.136681,45.320237 q 0,0.543277 -0.380294,0.908049 -0.372532,0.357011 -0.915809,0.357011 h -1.296104 q -0.543277,0 -0.923571,-0.357011 -0.380294,-0.364772 -0.380294,-0.908049 v -1.466848 q 0,-0.543276 0.380294,-0.900287 0.380294,-0.364772 0.923571,-0.364772 h 1.296104 q 0.543277,0 0.915809,0.364772 0.380294,0.357011 0.380294,0.900287 z m -0.931332,0 v -1.466848 q 0,-0.333727 -0.364771,-0.333727 h -1.296104 q -0.372533,0 -0.372533,0.333727 v 1.466848 q 0,0.333728 0.372533,0.333728 h 1.296104 q 0.364771,0 0.364771,-0.333728 z"
         id="path6765" />
    </g>
    <g
       aria-label="v"
       id="text4052"
       style="font-weight:bold;font-size:4.93889px;line-height:1.25;font-family:Bitsumishi;-inkscape-font-specification:'Bitsumishi Bold';stroke-width:0.264583">
      <path
         d="m 66.969702,44.041768 -1.293989,2.543529 h -0.503767 l -1.298928,-2.543529 h 0.661811 l 0.893939,1.73849 0.879123,-1.73849 z"
         id="path6758" />
    </g>
    <text
       xml:space="preserve"
       style="font-weight:bold;font-size:7.7611px;line-height:1.25;font-family:Bitsumishi;-inkscape-font-specification:'Bitsumishi Bold';text-align:center;text-anchor:middle;stroke-width:0.264583"
       x="70.482346"
       y="49.184086"
       id="text1238"><tspan
         sodipodi:role="line"
         id="tspan1236"
         style="stroke-width:0.264583"
         x="70.482346"
         y="49.184086" /></text>
  </g>
</svg>
