<?xml version="1.0" encoding="UTF-8" standalone="no"?>
<!-- Created with Inkscape (http://www.inkscape.org/) -->

<svg
   width="76.5mm"
   height="21.5mm"
   viewBox="0 0 76.5 21.5"
   version="1.1"
   id="svg5"
   inkscape:version="1.1.1 (c3084ef, 2021-09-22)"
   sodipodi:docname="board_title_graphic.svg"
   xmlns:inkscape="http://www.inkscape.org/namespaces/inkscape"
   xmlns:sodipodi="http://sodipodi.sourceforge.net/DTD/sodipodi-0.dtd"
   xmlns="http://www.w3.org/2000/svg"
   xmlns:svg="http://www.w3.org/2000/svg">
  <sodipodi:namedview
     id="namedview7"
     pagecolor="#505050"
     bordercolor="#eeeeee"
     borderopacity="1"
     inkscape:pageshadow="0"
     inkscape:pageopacity="0"
     inkscape:pagecheckerboard="0"
     inkscape:document-units="mm"
     showgrid="false"
     inkscape:zoom="1.5001964"
     inkscape:cx="95.654142"
     inkscape:cy="84.655582"
     inkscape:window-width="1800"
     inkscape:window-height="1042"
     inkscape:window-x="0"
     inkscape:window-y="44"
     inkscape:window-maximized="1"
     inkscape:current-layer="layer1"
     fit-margin-top="0"
     fit-margin-left="0"
     fit-margin-right="0"
     fit-margin-bottom="0"
     showborder="false" />
  <defs
     id="defs2" />
  <g
     inkscape:label="Layer 1"
     inkscape:groupmode="layer"
     id="layer1"
     transform="translate(-65.075279,-76.617638)">
    <path
       id="rect2546"
       style="fill:none;stroke:#000000;stroke-width:1.5;stroke-linecap:round;stroke-linejoin:round;stroke-dashoffset:0.400025"
       d="m 70.825279,77.367638 h 65.000001 c 2.77,0 5,2.23 5,5 v 10 c 0,2.77 -2.23,5 -5,5 H 70.825279 c -2.77,0 -5,-2.23 -5,-5 v -10 c 0,-2.77 2.23,-5 5,-5 z" />
    <g
       aria-label="SENSOR
CONTROL BOARD"
       id="text1354"
       style="font-weight:bold;font-size:7.7611px;line-height:1.25;font-family:Bitsumishi;-inkscape-font-specification:'Bitsumishi Bold';text-align:center;text-anchor:middle;stroke-width:0.264583">
      <path
         d="m 93.108276,83.281419 q 0,0.504472 -0.302682,0.861482 -0.325967,0.372533 -0.822677,0.372533 h -3.445928 v -0.931332 h 3.445928 q 0.194027,0 0.194027,-0.302683 0,-0.302682 -0.194027,-0.302682 h -2.506835 q -0.496711,0 -0.822677,-0.372533 -0.310444,-0.34925 -0.310444,-0.853721 0,-0.504472 0.318205,-0.869243 0.318205,-0.364772 0.814916,-0.364772 H 92.92201 V 81.4498 h -3.445928 q -0.194028,0 -0.194028,0.302683 0,0.294922 0.194028,0.294922 h 2.506835 q 0.49671,0 0.822677,0.372532 0.302682,0.357011 0.302682,0.861482 z"
         id="path2868" />
      <path
         d="m 97.75766,81.4498 h -3.329512 v 0.597605 h 3.112201 v 0.931332 h -3.112201 v 0.605365 h 3.321751 v 0.931332 h -4.253083 v -3.996966 h 4.260844 z"
         id="path2870" />
      <path
         d="m 102.41129,84.515434 h -0.93133 l -2.398183,-2.693101 v 2.693101 h -0.931332 v -3.996966 h 0.931332 l 2.398183,2.669818 v -2.669818 h 0.93133 z"
         id="path2872" />
      <path
         d="m 107.56939,83.281419 q 0,0.504472 -0.30268,0.861482 -0.32597,0.372533 -0.82268,0.372533 h -3.44593 v -0.931332 h 3.44593 q 0.19403,0 0.19403,-0.302683 0,-0.302682 -0.19403,-0.302682 h -2.50684 q -0.49671,0 -0.82267,-0.372533 -0.31045,-0.34925 -0.31045,-0.853721 0,-0.504472 0.31821,-0.869243 0.3182,-0.364772 0.81491,-0.364772 h 3.44593 V 81.4498 h -3.44593 q -0.19402,0 -0.19402,0.302683 0,0.294922 0.19402,0.294922 h 2.50684 q 0.49671,0 0.82268,0.372532 0.30268,0.357011 0.30268,0.861482 z"
         id="path2874" />
      <path
         d="m 112.90951,83.250375 q 0,0.543277 -0.38029,0.908049 -0.3803,0.35701 -0.92357,0.35701 h -2.34386 q -0.54327,0 -0.92357,-0.35701 -0.38029,-0.364772 -0.38029,-0.908049 v -1.466848 q 0,-0.543277 0.38029,-0.900287 0.3803,-0.364772 0.92357,-0.364772 h 2.34386 q 0.54327,0 0.92357,0.364772 0.38029,0.35701 0.38029,0.900287 z m -0.93133,0 v -1.466848 q 0,-0.333727 -0.37253,-0.333727 h -2.34386 q -0.37253,0 -0.37253,0.333727 v 1.466848 q 0,0.333727 0.37253,0.333727 h 2.34386 q 0.37253,0 0.37253,-0.333727 z"
         id="path2876" />
      <path
         d="m 117.98139,84.515434 h -1.27282 l -1.9946,-2.242958 h 2.39818 q 0.25611,0 0.25611,-0.411338 0,-0.411338 -0.25611,-0.411338 h -2.88713 v 3.065634 h -0.93134 v -3.996966 h 3.87279 q 0.53552,0 0.84596,0.419099 0.28716,0.380294 0.28716,0.923571 0,0.543277 -0.28716,0.923571 -0.31044,0.419099 -0.84596,0.419099 h -0.35701 z"
         id="path2878" />
      <path
         d="m 75.561279,94.216809 h -3.088918 q -0.543277,0 -0.923571,-0.357011 -0.380294,-0.364771 -0.380294,-0.908048 v -1.466848 q 0,-0.543277 0.380294,-0.900288 0.380294,-0.364771 0.923571,-0.364771 h 3.088918 v 0.931332 h -3.088918 q -0.372533,0 -0.372533,0.333727 v 1.466848 q 0,0.333727 0.372533,0.333727 h 3.088918 z"
         id="path2880" />
      <path
         d="m 80.894973,92.95175 q 0,0.543277 -0.380294,0.908048 -0.380294,0.357011 -0.923571,0.357011 h -2.343852 q -0.543277,0 -0.923571,-0.357011 -0.380294,-0.364771 -0.380294,-0.908048 v -1.466848 q 0,-0.543277 0.380294,-0.900288 0.380294,-0.364771 0.923571,-0.364771 h 2.343852 q 0.543277,0 0.923571,0.364771 0.380294,0.357011 0.380294,0.900288 z m -0.931332,0 v -1.466848 q 0,-0.333727 -0.372533,-0.333727 h -2.343852 q -0.372533,0 -0.372533,0.333727 v 1.466848 q 0,0.333727 0.372533,0.333727 h 2.343852 q 0.372533,0 0.372533,-0.333727 z"
         id="path2882" />
      <path
         d="m 85.539991,94.216809 h -0.931332 l -2.39818,-2.693102 v 2.693102 h -0.931332 v -3.996966 h 0.931332 l 2.39818,2.669818 v -2.669818 h 0.931332 z"
         id="path2884" />
      <path
         d="m 90.465259,91.151175 h -1.800575 v 3.065634 h -0.931332 v -3.065634 h -1.800576 v -0.931332 h 4.532483 z"
         id="path2886" />
      <path
         d="m 95.486325,94.216809 h -1.27282 l -1.994603,-2.242958 h 2.39818 q 0.256117,0 0.256117,-0.411338 0,-0.411338 -0.256117,-0.411338 h -2.887129 v 3.065634 h -0.931332 v -3.996966 h 3.872789 q 0.535516,0 0.84596,0.419099 0.287161,0.380294 0.287161,0.923571 0,0.543277 -0.287161,0.923571 -0.310444,0.419099 -0.84596,0.419099 h -0.357011 z"
         id="path2888" />
      <path
         d="m 101.14659,92.95175 q 0,0.543277 -0.38029,0.908048 -0.38029,0.357011 -0.923571,0.357011 h -2.343852 q -0.543277,0 -0.923571,-0.357011 -0.380294,-0.364771 -0.380294,-0.908048 v -1.466848 q 0,-0.543277 0.380294,-0.900288 0.380294,-0.364771 0.923571,-0.364771 h 2.343852 q 0.543281,0 0.923571,0.364771 0.38029,0.357011 0.38029,0.900288 z m -0.93133,0 v -1.466848 q 0,-0.333727 -0.372531,-0.333727 h -2.343852 q -0.372533,0 -0.372533,0.333727 v 1.466848 q 0,0.333727 0.372533,0.333727 h 2.343852 q 0.372531,0 0.372531,-0.333727 z"
         id="path2890" />
      <path
         d="m 105.52773,94.216809 h -3.99696 v -3.996966 h 0.93133 v 3.065634 h 3.06563 z"
         id="path2892" />
      <path
         d="m 114.30129,92.191162 q 0.48895,0.302683 0.48895,0.923571 0,0.450144 -0.28716,0.760588 -0.31044,0.341488 -0.8382,0.341488 h -3.87279 v -3.996966 h 3.80294 q 0.52776,0 0.8382,0.341488 0.2794,0.310444 0.2794,0.760588 0,0.558799 -0.41134,0.869243 z m -0.70626,-0.434622 q 0.20179,0 0.20179,-0.302682 0,-0.302683 -0.20179,-0.302683 h -2.87161 v 0.605365 z m 0.0699,1.528937 q 0.20179,0 0.20179,-0.302683 0,-0.302683 -0.20179,-0.302683 h -2.94146 v 0.605366 z"
         id="path2894" />
      <path
         d="m 120.03396,92.95175 q 0,0.543277 -0.3803,0.908048 -0.38029,0.357011 -0.92357,0.357011 h -2.34385 q -0.54328,0 -0.92357,-0.357011 -0.38029,-0.364771 -0.38029,-0.908048 v -1.466848 q 0,-0.543277 0.38029,-0.900288 0.38029,-0.364771 0.92357,-0.364771 h 2.34385 q 0.54328,0 0.92357,0.364771 0.3803,0.357011 0.3803,0.900288 z m -0.93133,0 v -1.466848 q 0,-0.333727 -0.37254,-0.333727 h -2.34385 q -0.37253,0 -0.37253,0.333727 v 1.466848 q 0,0.333727 0.37253,0.333727 h 2.34385 q 0.37254,0 0.37254,-0.333727 z"
         id="path2896" />
      <path
         d="m 125.31538,94.216809 h -0.93133 v -1.27282 h -2.45251 v -0.931332 h 2.45251 v -0.558799 q 0,-0.302683 -0.20179,-0.302683 h -2.63877 q -0.19403,0 -0.19403,0.302683 v 2.762951 h -0.93133 v -2.762951 q 0,-0.504472 0.31044,-0.869244 0.31821,-0.364771 0.81492,-0.364771 h 2.63877 q 0.50447,0 0.81492,0.364771 0.3182,0.364772 0.3182,0.869244 z"
         id="path2898" />
      <path
         d="m 130.39612,94.216809 h -1.27282 l -1.99461,-2.242958 h 2.39818 q 0.25612,0 0.25612,-0.411338 0,-0.411338 -0.25612,-0.411338 h -2.88712 v 3.065634 h -0.93134 v -3.996966 h 3.87279 q 0.53552,0 0.84596,0.419099 0.28716,0.380294 0.28716,0.923571 0,0.543277 -0.28716,0.923571 -0.31044,0.419099 -0.84596,0.419099 h -0.35701 z"
         id="path2900" />
      <path
         d="m 135.48206,92.95175 q 0,0.543277 -0.38029,0.908048 -0.37253,0.357011 -0.91581,0.357011 h -3.08116 v -2.522357 h 0.93133 v 1.591025 h 2.14983 q 0.35701,0 0.35701,-0.333727 v -1.466848 q 0,-0.333727 -0.35701,-0.333727 h -3.08116 v -0.931332 h 3.08116 q 0.54328,0 0.91581,0.364771 0.38029,0.357011 0.38029,0.900288 z"
         id="path2902" />
    </g>
  </g>
</svg>
