<?xml version="1.0" encoding="UTF-8" standalone="no"?>
<!-- Created with Inkscape (http://www.inkscape.org/) -->

<svg
   width="233.99307mm"
   height="31.99972mm"
   viewBox="0 0 233.99307 31.99972"
   version="1.1"
   id="svg5"
   inkscape:version="1.1.1 (c3084ef, 2021-09-22)"
   sodipodi:docname="copyright_graphic.svg"
   xmlns:inkscape="http://www.inkscape.org/namespaces/inkscape"
   xmlns:sodipodi="http://sodipodi.sourceforge.net/DTD/sodipodi-0.dtd"
   xmlns="http://www.w3.org/2000/svg"
   xmlns:svg="http://www.w3.org/2000/svg">
  <sodipodi:namedview
     id="namedview7"
     pagecolor="#505050"
     bordercolor="#eeeeee"
     borderopacity="1"
     inkscape:pageshadow="0"
     inkscape:pageopacity="0"
     inkscape:pagecheckerboard="0"
     inkscape:document-units="mm"
     showgrid="false"
     inkscape:snap-smooth-nodes="true"
     inkscape:zoom="0.64052329"
     inkscape:cx="263.06616"
     inkscape:cy="-161.58663"
     inkscape:window-width="1800"
     inkscape:window-height="1041"
     inkscape:window-x="0"
     inkscape:window-y="44"
     inkscape:window-maximized="1"
     inkscape:current-layer="layer1"
     fit-margin-top="0"
     fit-margin-left="0"
     fit-margin-right="0"
     fit-margin-bottom="0"
     showborder="false" />
  <defs
     id="defs2" />
  <g
     inkscape:label="Layer 1"
     inkscape:groupmode="layer"
     id="layer1"
     transform="translate(-33.56895,-143.98908)">
    <g
       aria-label="© AutoBloomer.com 2023"
       id="text1442"
       style="font-weight:bold;font-size:14.1111px;line-height:1.25;font-family:'Rounds Black';-inkscape-font-specification:'Rounds Black,  Bold';text-align:center;text-anchor:middle;stroke-width:0;stroke-miterlimit:4;stroke-dasharray:none">
      <path
         d="m 49.553699,160.48283 c 0,1.27 1.058333,2.32833 2.751665,2.32833 1.481665,0 2.257776,-0.77611 2.257776,-1.41111 0,-0.49388 -0.352778,-0.84666 -0.917222,-0.84666 -0.77611,0 -0.77611,0.49389 -1.340554,0.49389 -0.352778,0 -0.635,-0.28222 -0.635,-0.56445 v -0.84666 c 0,-0.28222 0.282222,-0.56445 0.635,-0.56445 0.564444,0 0.564444,0.49389 1.269999,0.49389 0.564444,0 0.917221,-0.35278 0.917221,-0.84666 0,-0.635 -0.77611,-1.41111 -2.18722,-1.41111 -1.693332,0 -2.751665,1.05833 -2.751665,2.32833 z m 6.632217,-0.49389 c 0,2.25778 -1.834443,4.09222 -4.092219,4.09222 -2.257776,0 -4.092219,-1.83444 -4.092219,-4.09222 0,-2.25777 1.834443,-4.09221 4.092219,-4.09221 2.257776,0 4.092219,1.83444 4.092219,4.09221 z m 2.539998,0 c 0,-3.38666 -2.82222,-6.20888 -6.632217,-6.20888 -3.809997,0 -6.632217,2.82222 -6.632217,6.20888 0,3.38667 2.82222,6.20889 6.632217,6.20889 3.809997,0 6.632217,-2.82222 6.632217,-6.20889 z"
         id="path6867"
         style="stroke-width:0;stroke-miterlimit:4;stroke-dasharray:none" />
      <path
         d="m 67.323763,159.56561 0.776111,-2.11666 h 0.141111 l 0.77611,2.11666 z m -0.634999,2.54 h 2.963331 l 0.352777,0.84667 c 0.352778,0.84666 0.917222,1.41111 1.693332,1.41111 0.917222,0 1.552221,-0.635 1.552221,-1.41111 0,-0.42334 -0.352777,-1.27 -0.352777,-1.27 l -2.257776,-5.92667 c -0.409222,-1.05833 -1.058333,-1.69333 -2.469443,-1.69333 -1.41111,0 -2.046109,0.635 -2.469442,1.69333 l -2.257776,5.92667 c 0,0 -0.352778,0.84666 -0.352778,1.27 0,0.77611 0.635,1.41111 1.552221,1.41111 0.776111,0 1.340555,-0.56445 1.693332,-1.41111 z"
         id="path6869"
         style="stroke-width:0;stroke-miterlimit:4;stroke-dasharray:none" />
      <path
         d="m 78.693121,164.5045 c 2.82222,0 4.515552,-1.69334 4.515552,-4.09222 v -4.79778 c 0,-0.84666 -0.564444,-1.41111 -1.552221,-1.41111 -0.987777,0 -1.552221,0.56445 -1.552221,1.41111 v 4.79778 c 0,0.98777 -0.564444,1.55222 -1.41111,1.55222 -0.846666,0 -1.41111,-0.56445 -1.41111,-1.55222 v -4.79778 c 0,-0.84666 -0.564444,-1.41111 -1.552221,-1.41111 -0.987777,0 -1.552221,0.56445 -1.552221,1.41111 v 4.79778 c 0,2.39888 1.693332,4.09222 4.515552,4.09222 z"
         id="path6871"
         style="stroke-width:0;stroke-miterlimit:4;stroke-dasharray:none" />
      <path
         d="m 87.223724,157.16672 v 5.78556 c 0,0.84666 0.564444,1.41111 1.552221,1.41111 0.987777,0 1.552221,-0.56445 1.552221,-1.41111 v -5.78556 h 1.552221 c 0.987777,0 1.552221,-0.56444 1.552221,-1.41111 0,-0.84666 -0.564444,-1.41111 -1.552221,-1.41111 h -6.208884 c -0.987777,0 -1.552221,0.56445 -1.552221,1.41111 0,0.84667 0.564444,1.41111 1.552221,1.41111 z"
         id="path6873"
         style="stroke-width:0;stroke-miterlimit:4;stroke-dasharray:none" />
      <path
         d="m 103.17808,158.29561 c 0,-2.39888 -1.83444,-4.23333 -4.727215,-4.23333 -2.892775,0 -4.727218,1.83445 -4.727218,4.23333 v 1.97556 c 0,2.39888 1.834443,4.23333 4.727218,4.23333 2.892775,0 4.727215,-1.83445 4.727215,-4.23333 z m -3.17499,1.97556 c 0,1.12888 -0.705559,1.83444 -1.552225,1.83444 -0.846666,0 -1.552221,-0.70556 -1.552221,-1.83444 v -1.97556 c 0,-1.12889 0.705555,-1.83444 1.552221,-1.83444 0.846666,0 1.552225,0.70555 1.552225,1.83444 z"
         id="path6875"
         style="stroke-width:0;stroke-miterlimit:4;stroke-dasharray:none" />
      <path
         d="m 107.76419,156.74339 h 1.27 c 0.56445,0 0.84667,0.28222 0.84667,0.635 0,0.35278 -0.28222,0.635 -0.84667,0.635 h -1.27 z m 0,3.52778 h 1.69334 c 0.635,0 0.98777,0.35277 0.98777,0.77611 0,0.42333 -0.35277,0.77611 -0.98777,0.77611 h -1.69334 z m -1.55222,-5.92667 c -0.98777,0 -1.53811,0.56445 -1.55222,1.41111 v 7.05555 c 0,0.84667 0.56445,1.41111 1.55222,1.41111 h 3.24556 c 2.96333,0 4.23333,-1.26999 4.23333,-2.89277 0,-1.905 -2.11667,-2.32833 -2.11667,-2.32833 v -0.14111 c 0,0 1.55222,-0.42334 1.55222,-1.905 0,-1.48167 -1.12889,-2.61056 -4.09222,-2.61056 z"
         id="path6877"
         style="stroke-width:0;stroke-miterlimit:4;stroke-dasharray:none" />
      <path
         d="m 117.98923,161.40005 v -5.78555 c 0,-0.84666 -0.56444,-1.41111 -1.55222,-1.41111 -0.98778,0 -1.55222,0.56445 -1.55222,1.41111 v 7.19666 c 0,0.84667 0.56444,1.41111 1.55222,1.41111 h 4.93889 c 0.98777,0 1.55222,-0.56444 1.55222,-1.41111 0,-0.84666 -0.56445,-1.41111 -1.55222,-1.41111 z"
         id="path6879"
         style="stroke-width:0;stroke-miterlimit:4;stroke-dasharray:none" />
      <path
         d="m 132.66808,158.29561 c 0,-2.39888 -1.83444,-4.23333 -4.72722,-4.23333 -2.89277,0 -4.72722,1.83445 -4.72722,4.23333 v 1.97556 c 0,2.39888 1.83445,4.23333 4.72722,4.23333 2.89278,0 4.72722,-1.83445 4.72722,-4.23333 z m -3.175,1.97556 c 0,1.12888 -0.70555,1.83444 -1.55222,1.83444 -0.84666,0 -1.55222,-0.70556 -1.55222,-1.83444 v -1.97556 c 0,-1.12889 0.70556,-1.83444 1.55222,-1.83444 0.84667,0 1.55222,0.70555 1.55222,1.83444 z"
         id="path6881"
         style="stroke-width:0;stroke-miterlimit:4;stroke-dasharray:none" />
      <path
         d="m 143.2514,158.29561 c 0,-2.39888 -1.83444,-4.23333 -4.72722,-4.23333 -2.89277,0 -4.72721,1.83445 -4.72721,4.23333 v 1.97556 c 0,2.39888 1.83444,4.23333 4.72721,4.23333 2.89278,0 4.72722,-1.83445 4.72722,-4.23333 z m -3.175,1.97556 c 0,1.12888 -0.70555,1.83444 -1.55222,1.83444 -0.84666,0 -1.55222,-0.70556 -1.55222,-1.83444 v -1.97556 c 0,-1.12889 0.70556,-1.83444 1.55222,-1.83444 0.84667,0 1.55222,0.70555 1.55222,1.83444 z"
         id="path6883"
         style="stroke-width:0;stroke-miterlimit:4;stroke-dasharray:none" />
      <path
         d="m 150.73029,163.37561 c 0.84666,0 1.34055,-0.49389 1.69333,-1.41111 l 1.05833,-2.68111 h 0.14111 l 0.635,3.66889 c 0.14111,0.84666 0.70556,1.41111 1.62278,1.41111 0.91722,0 1.48167,-0.56445 1.48167,-1.41111 0,-0.56445 -0.14112,-1.27 -0.14112,-1.27 l -0.98777,-5.92667 c -0.15522,-0.98777 -0.84667,-1.69333 -2.04611,-1.69333 -1.05833,0 -1.70744,0.635 -2.11667,1.69333 l -1.27,3.302 h -0.14111 l -1.27,-3.302 c -0.42333,-1.05833 -1.05833,-1.69333 -2.11666,-1.69333 -1.19944,0 -1.87678,0.70556 -2.04611,1.69333 l -0.98778,5.92667 c 0,0 -0.14111,0.70555 -0.14111,1.27 0,0.84666 0.56445,1.41111 1.48167,1.41111 0.91722,0 1.48166,-0.56445 1.62277,-1.41111 l 0.635,-3.66889 h 0.14111 l 1.05834,2.68111 c 0.33866,0.91722 0.84666,1.41111 1.69333,1.41111 z"
         id="path6885"
         style="stroke-width:0;stroke-miterlimit:4;stroke-dasharray:none" />
      <path
         d="m 165.48301,157.16672 c 0.98777,0 1.55222,-0.56444 1.55222,-1.41111 0,-0.84666 -0.56445,-1.41111 -1.55222,-1.41111 h -5.36222 c -0.98778,0 -1.55222,0.56445 -1.55222,1.41111 v 7.05555 c 0,0.84667 0.56444,1.41111 1.55222,1.41111 h 5.50333 c 0.98777,0 1.55222,-0.56444 1.55222,-1.41111 0,-0.84666 -0.56445,-1.41111 -1.55222,-1.41111 h -3.95111 v -0.84666 h 2.68111 c 0.84666,0 1.41111,-0.56445 1.41111,-1.27 0,-0.70556 -0.56445,-1.27 -1.41111,-1.27 h -2.68111 v -0.84667 z"
         id="path6887"
         style="stroke-width:0;stroke-miterlimit:4;stroke-dasharray:none" />
      <path
         d="m 172.19349,160.6945 2.25778,2.96333 c 0,0 0.56444,0.70556 1.27,0.70556 1.12889,0 1.69333,-0.56445 1.69333,-1.41111 0,-0.56445 -0.56444,-1.27 -0.56444,-1.27 l -1.41111,-1.69334 v -0.14111 c 0,0 1.55222,-0.56444 1.55222,-2.32833 0,-1.905 -1.27,-3.175 -4.23333,-3.175 h -2.96333 c -0.98778,0 -1.55222,0.56445 -1.55222,1.41111 v 7.19667 c 0,0.84666 0.56444,1.41111 1.55222,1.41111 0.98777,0 1.55222,-0.56445 1.55222,-1.41111 v -2.25778 z m -0.84666,-2.39889 v -1.55222 h 1.41111 c 0.635,0 0.98778,0.35278 0.98778,0.77611 0,0.42334 -0.35278,0.77611 -0.98778,0.77611 z"
         id="path6889"
         style="stroke-width:0;stroke-miterlimit:4;stroke-dasharray:none" />
      <path
         d="m 179.53787,161.40005 c -0.98777,0 -1.62277,0.635 -1.62277,1.48167 0,0.84667 0.635,1.48167 1.62277,1.48167 0.98778,0 1.62278,-0.635 1.62278,-1.48167 0,-0.84667 -0.635,-1.48167 -1.62278,-1.48167 z"
         id="path6891"
         style="stroke-width:0;stroke-miterlimit:4;stroke-dasharray:none" />
      <path
         d="m 182.00071,160.27117 c 0,2.39888 1.83444,4.23333 4.72722,4.23333 2.61055,0 4.02166,-1.41111 4.02166,-2.39889 0,-0.77611 -0.49389,-1.27 -1.55222,-1.27 -1.12889,0 -1.27,0.98778 -2.46944,0.98778 -0.91722,0 -1.55222,-0.635 -1.55222,-1.55222 v -1.97556 c 0,-0.91722 0.635,-1.55222 1.55222,-1.55222 1.05833,0 1.19944,0.98778 2.32833,0.98778 1.05833,0 1.55222,-0.49389 1.55222,-1.27 0,-0.98778 -1.41111,-2.39889 -3.88055,-2.39889 -2.89278,0 -4.72722,1.83445 -4.72722,4.23333 z"
         id="path6893"
         style="stroke-width:0;stroke-miterlimit:4;stroke-dasharray:none" />
      <path
         d="m 200.90848,158.29561 c 0,-2.39888 -1.83444,-4.23333 -4.72721,-4.23333 -2.89278,0 -4.72722,1.83445 -4.72722,4.23333 v 1.97556 c 0,2.39888 1.83444,4.23333 4.72722,4.23333 2.89277,0 4.72721,-1.83445 4.72721,-4.23333 z m -3.17499,1.97556 c 0,1.12888 -0.70556,1.83444 -1.55222,1.83444 -0.84667,0 -1.55223,-0.70556 -1.55223,-1.83444 v -1.97556 c 0,-1.12889 0.70556,-1.83444 1.55223,-1.83444 0.84666,0 1.55222,0.70555 1.55222,1.83444 z"
         id="path6895"
         style="stroke-width:0;stroke-miterlimit:4;stroke-dasharray:none" />
      <path
         d="m 208.38735,163.37561 c 0.84667,0 1.34056,-0.49389 1.69334,-1.41111 l 1.05833,-2.68111 h 0.14111 l 0.635,3.66889 c 0.14111,0.84666 0.70555,1.41111 1.62278,1.41111 0.91722,0 1.48166,-0.56445 1.48166,-1.41111 0,-0.56445 -0.14111,-1.27 -0.14111,-1.27 l -0.98778,-5.92667 c -0.15522,-0.98777 -0.84666,-1.69333 -2.04611,-1.69333 -1.05833,0 -1.70744,0.635 -2.11666,1.69333 l -1.27,3.302 h -0.14111 l -1.27,-3.302 c -0.42333,-1.05833 -1.05833,-1.69333 -2.11666,-1.69333 -1.19945,0 -1.87678,0.70556 -2.04611,1.69333 l -0.98778,5.92667 c 0,0 -0.14111,0.70555 -0.14111,1.27 0,0.84666 0.56444,1.41111 1.48166,1.41111 0.91722,0 1.48167,-0.56445 1.62278,-1.41111 l 0.635,-3.66889 h 0.14111 l 1.05833,2.68111 c 0.33867,0.91722 0.84667,1.41111 1.69333,1.41111 z"
         id="path6897"
         style="stroke-width:0;stroke-miterlimit:4;stroke-dasharray:none" />
      <path
         d="m 227.85737,157.5195 c 0,-1.905 -1.55222,-3.45722 -4.37444,-3.45722 -2.46944,0 -3.88055,1.28411 -3.88055,2.413 0,0.77611 0.49389,1.25589 1.55222,1.25589 1.12889,0 1.27,-0.98778 2.32833,-0.98778 0.77611,0 1.12889,0.35278 1.12889,0.77611 0,1.34056 -5.22111,1.62278 -5.22111,5.15055 0,0.84667 0.70556,1.55222 1.69334,1.55222 h 5.2211 c 0.98778,0 1.55222,-0.57855 1.55222,-1.41111 0,-0.84666 -0.56444,-1.41111 -1.55222,-1.41111 h -2.68111 v -0.14111 c 1.55223,-0.98777 4.23333,-1.27 4.23333,-3.73944 z"
         id="path6899"
         style="stroke-width:0;stroke-miterlimit:4;stroke-dasharray:none" />
      <path
         d="m 234.29005,160.62394 c 0,0.91723 -0.56445,1.48167 -1.19945,1.48167 -0.635,0 -1.19944,-0.56444 -1.19944,-1.48167 v -2.6811 c 0,-0.91723 0.56444,-1.48167 1.19944,-1.48167 0.635,0 1.19945,0.56444 1.19945,1.48167 z m -5.57389,0 c 0,2.18722 1.69333,3.88056 4.37444,3.88056 2.68111,0 4.37444,-1.69334 4.37444,-3.88056 v -2.6811 c 0,-2.18723 -1.69333,-3.88056 -4.37444,-3.88056 -2.68111,0 -4.37444,1.69333 -4.37444,3.88056 z"
         id="path6901"
         style="stroke-width:0;stroke-miterlimit:4;stroke-dasharray:none" />
      <path
         d="m 246.62623,157.5195 c 0,-1.905 -1.55222,-3.45722 -4.37444,-3.45722 -2.46944,0 -3.88055,1.28411 -3.88055,2.413 0,0.77611 0.49389,1.25589 1.55222,1.25589 1.12889,0 1.27,-0.98778 2.32833,-0.98778 0.77611,0 1.12889,0.35278 1.12889,0.77611 0,1.34056 -5.22111,1.62278 -5.22111,5.15055 0,0.84667 0.70556,1.55222 1.69334,1.55222 h 5.2211 c 0.98778,0 1.55222,-0.57855 1.55222,-1.41111 0,-0.84666 -0.56444,-1.41111 -1.55222,-1.41111 h -2.68111 v -0.14111 c 1.55223,-0.98777 4.23333,-1.27 4.23333,-3.73944 z"
         id="path6903"
         style="stroke-width:0;stroke-miterlimit:4;stroke-dasharray:none" />
      <path
         d="m 254.54059,157.16672 c 0,0 0.84666,-0.56444 0.84666,-1.41111 0,-0.84666 -0.56444,-1.41111 -1.55222,-1.41111 h -4.86833 c -0.98777,0 -1.55222,0.56445 -1.55222,1.41111 0,0.84667 0.56445,1.41111 1.55222,1.41111 h 2.04611 v 0.14112 l -1.41111,0.91722 c 0,0 -0.70555,0.42333 -0.70555,1.05833 0,0.56444 0.42333,0.98778 1.12889,0.98778 h 1.26999 c 0.77612,0 1.12889,0.35277 1.12889,0.77611 0,0.42333 -0.35277,0.77611 -1.27,0.77611 -1.27,0 -1.41111,-0.98778 -2.53999,-0.98778 -1.05834,0 -1.55223,0.49389 -1.55223,1.28411 0,0.97367 1.41111,2.38478 4.09222,2.38478 2.96333,0 4.51556,-1.55222 4.51556,-3.31611 0,-2.46944 -2.82222,-2.75167 -2.82222,-2.75167 v -0.14111 z"
         id="path6905"
         style="stroke-width:0;stroke-miterlimit:4;stroke-dasharray:none" />
    </g>
    <path
       style="color:#000000;fill:#000000;stroke-linecap:round;stroke-linejoin:round;stroke-dashoffset:0.400025;stroke-width:0;stroke-miterlimit:4;stroke-dasharray:none"
       d="m 187.34766,542.32031 c -34.37406,-2.7e-4 -62.36237,27.98727 -62.36328,62.36133 -2.8e-4,34.37489 27.98839,62.36355 62.36328,62.36328 h 763.4375 c 34.37488,2.6e-4 62.36354,-27.9884 62.36324,-62.36328 -9e-4,-34.37405 -27.98919,-62.36159 -62.36324,-62.36133 z m 0,11.33985 h 763.4375 c 28.2463,-2.2e-4 51.02264,22.77517 51.02344,51.02148 2e-4,28.247 -22.77644,51.02365 -51.02344,51.02344 h -763.4375 c -28.24701,2.2e-4 -51.02366,-22.77643 -51.02344,-51.02344 7.5e-4,-28.24631 22.77712,-51.02171 51.02344,-51.02148 z"
       id="path6702"
       transform="scale(0.26458333)" />
  </g>
</svg>
