<?xml version="1.0" encoding="UTF-8" standalone="no"?>
<!-- Created with Inkscape (http://www.inkscape.org/) -->

<svg
   width="105.41826mm"
   height="21.783649mm"
   viewBox="0 0 105.41826 21.783649"
   version="1.1"
   id="svg5"
   inkscape:version="1.1.1 (c3084ef, 2021-09-22)"
   sodipodi:docname="title.svg"
   xmlns:inkscape="http://www.inkscape.org/namespaces/inkscape"
   xmlns:sodipodi="http://sodipodi.sourceforge.net/DTD/sodipodi-0.dtd"
   xmlns="http://www.w3.org/2000/svg"
   xmlns:svg="http://www.w3.org/2000/svg">
  <sodipodi:namedview
     id="namedview7"
     pagecolor="#505050"
     bordercolor="#eeeeee"
     borderopacity="1"
     inkscape:pageshadow="0"
     inkscape:pageopacity="0"
     inkscape:pagecheckerboard="0"
     inkscape:document-units="mm"
     showgrid="false"
     showguides="false"
     inkscape:guide-bbox="true"
     inkscape:zoom="2.5926684"
     inkscape:cx="199.2156"
     inkscape:cy="-31.434795"
     inkscape:window-width="1800"
     inkscape:window-height="1041"
     inkscape:window-x="0"
     inkscape:window-y="44"
     inkscape:window-maximized="1"
     inkscape:current-layer="layer1"
     inkscape:snap-intersection-paths="true"
     inkscape:object-paths="true"
     inkscape:snap-bbox="true"
     inkscape:snap-bbox-edge-midpoints="true"
     fit-margin-top="0"
     fit-margin-left="0"
     fit-margin-right="0"
     fit-margin-bottom="0"
     showborder="false">
    <sodipodi:guide
       position="21.885808,49.172175"
       orientation="1,0"
       id="guide6760" />
    <sodipodi:guide
       position="21.885808,49.172175"
       orientation="0,-1"
       id="guide6762" />
    <sodipodi:guide
       position="16.752583,30.01472"
       orientation="0,-1"
       id="guide6846" />
    <sodipodi:guide
       position="85.504454,39.593447"
       orientation="0,-1"
       id="guide7081" />
    <sodipodi:guide
       position="80.799449,30.01472"
       orientation="1,0"
       id="guide8047" />
    <sodipodi:guide
       position="21.885808,39.593447"
       orientation="0.70710678,-0.70710678"
       id="guide8265" />
    <sodipodi:guide
       position="85.004454,39.593447"
       orientation="-0.70710678,-0.70710678"
       id="guide8267" />
    <sodipodi:guide
       position="56.747804,74.455442"
       orientation="-0.70710678,-0.70710678"
       id="guide8521" />
  </sodipodi:namedview>
  <defs
     id="defs2" />
  <g
     inkscape:label="Layer 1"
     inkscape:groupmode="layer"
     id="layer1"
     transform="translate(-10.56808,-91.601241)">
    <text
       xml:space="preserve"
       style="font-weight:bold;font-size:5.64444px;line-height:1.25;font-family:'Rounds Black';-inkscape-font-specification:'Rounds Black,  Bold';text-align:center;text-anchor:middle;stroke-width:1;stroke:#000000;stroke-opacity:1;stroke-miterlimit:4;stroke-dasharray:none"
       x="55.700169"
       y="59.144318"
       id="text7004"><tspan
         sodipodi:role="line"
         id="tspan7002"
         style="stroke-width:1;stroke:#000000;stroke-opacity:1;stroke-miterlimit:4;stroke-dasharray:none"
         x="55.700169"
         y="59.144318" /></text>
    <path
       d="m 48.158729,68.796111 c 0,-0.338666 -0.225778,-0.564444 -0.620888,-0.564444 -0.395111,0 -0.620889,0.225778 -0.620889,0.564444 v 2.935109 c 0,0.338666 0.225778,0.564444 0.620889,0.564444 0.39511,0 0.620888,-0.225778 0.620888,-0.564444 v -0.90311 h 1.128887 v 0.90311 c 0,0.338666 0.225778,0.564444 0.620888,0.564444 0.395111,0 0.620889,-0.225778 0.620889,-0.564444 v -2.935109 c 0,-0.338666 -0.225778,-0.564444 -0.620889,-0.564444 -0.39511,0 -0.620888,0.225778 -0.620888,0.564444 v 0.959555 h -1.128888 z"
       id="path7723"
       style="font-weight:bold;font-size:5.64444px;line-height:1.25;font-family:'Rounds Black';-inkscape-font-specification:'Rounds Black,  Bold';text-align:center;text-anchor:middle;stroke-width:0;stroke:none;stroke-opacity:1;stroke-miterlimit:4;stroke-dasharray:none" />
    <path
       d="m 52.586969,70.376554 0.310444,-0.846666 h 0.05644 l 0.310443,0.846666 z m -0.254,1.016 h 1.185332 l 0.141111,0.338666 c 0.141111,0.338666 0.366889,0.564444 0.677333,0.564444 0.366889,0 0.620889,-0.254 0.620889,-0.564444 0,-0.169333 -0.141111,-0.508 -0.141111,-0.508 l -0.903111,-2.370664 c -0.163689,-0.423333 -0.423333,-0.677333 -0.987778,-0.677333 -0.564444,0 -0.818443,0.254 -0.987777,0.677333 l -0.903109,2.370664 c 0,0 -0.141112,0.338667 -0.141112,0.508 0,0.310444 0.253999,0.564444 0.620888,0.564444 0.310444,0 0.536223,-0.225778 0.677333,-0.564444 z"
       id="path7725"
       style="font-weight:bold;font-size:5.64444px;line-height:1.25;font-family:'Rounds Black';-inkscape-font-specification:'Rounds Black,  Bold';text-align:center;text-anchor:middle;stroke-width:0;stroke:none;stroke-opacity:1;stroke-miterlimit:4;stroke-dasharray:none" />
    <path
       d="m 56.908934,70.82811 0.903111,1.185332 c 0,0 0.225777,0.282222 0.507999,0.282222 0.451555,0 0.677333,-0.225778 0.677333,-0.564444 0,-0.225778 -0.225778,-0.508 -0.225778,-0.508 l -0.564444,-0.677332 v -0.05645 c 0,0 0.620888,-0.225777 0.620888,-0.931332 0,-0.762 -0.508,-1.269999 -1.693331,-1.269999 h -1.185333 c -0.395111,0 -0.620889,0.225777 -0.620889,0.564444 v 2.878664 c 0,0.338666 0.225778,0.564444 0.620889,0.564444 0.395111,0 0.620888,-0.225778 0.620888,-0.564444 v -0.90311 z m -0.338667,-0.959555 v -0.620889 h 0.564445 c 0.253999,0 0.395111,0.141111 0.395111,0.310445 0,0.169333 -0.141112,0.310444 -0.395111,0.310444 z"
       id="path7727"
       style="font-weight:bold;font-size:5.64444px;line-height:1.25;font-family:'Rounds Black';-inkscape-font-specification:'Rounds Black,  Bold';text-align:center;text-anchor:middle;stroke-width:0;stroke:none;stroke-opacity:1;stroke-miterlimit:4;stroke-dasharray:none" />
    <path
       d="m 63.007575,69.981444 c 0,-0.959555 -0.733778,-1.693332 -1.947331,-1.693332 h -0.987777 c -0.395111,0 -0.620889,0.225777 -0.620889,0.564444 v 2.82222 c 0,0.338666 0.225778,0.564444 0.620889,0.564444 h 0.987777 c 1.213554,0 1.947331,-0.733778 1.947331,-1.693332 z m -1.947331,-0.677333 c 0.39511,0 0.677332,0.282222 0.677332,0.677333 v 0.564444 c 0,0.39511 -0.282222,0.677332 -0.677332,0.677332 h -0.366889 v -1.919109 z"
       id="path7729"
       style="font-weight:bold;font-size:5.64444px;line-height:1.25;font-family:'Rounds Black';-inkscape-font-specification:'Rounds Black,  Bold';text-align:center;text-anchor:middle;stroke-width:0;stroke:none;stroke-opacity:1;stroke-miterlimit:4;stroke-dasharray:none" />
    <path
       d="m 66.334266,70.207221 0.310445,1.467555 c 0.107244,0.39511 0.395111,0.677332 0.959555,0.677332 0.564444,0 0.85231,-0.282222 0.959554,-0.677332 l 0.649111,-2.370665 c 0,0 0.112889,-0.338667 0.112889,-0.508 0,-0.310444 -0.254,-0.564444 -0.620889,-0.564444 -0.39511,0 -0.620888,0.225778 -0.705555,0.564444 l -0.451555,1.862665 h -0.05644 L 67.124488,68.909 c -0.09031,-0.423333 -0.338666,-0.677333 -0.818444,-0.677333 -0.479777,0 -0.728133,0.254 -0.818444,0.677333 l -0.366888,1.749776 h -0.05645 l -0.451555,-1.862665 c -0.08467,-0.338666 -0.310444,-0.564444 -0.705554,-0.564444 -0.366889,0 -0.620888,0.254 -0.620888,0.564444 0,0.169333 0.112889,0.508 0.112889,0.508 l 0.64911,2.370665 c 0.107244,0.39511 0.395111,0.677332 0.959554,0.677332 0.564445,0 0.852311,-0.282222 0.959556,-0.677332 l 0.310444,-1.467555 z"
       id="path7731"
       style="font-weight:bold;font-size:5.64444px;line-height:1.25;font-family:'Rounds Black';-inkscape-font-specification:'Rounds Black,  Bold';text-align:center;text-anchor:middle;stroke-width:0;stroke:none;stroke-opacity:1;stroke-miterlimit:4;stroke-dasharray:none" />
    <path
       d="m 70.964472,70.376554 0.310445,-0.846666 h 0.05644 l 0.310445,0.846666 z m -0.254,1.016 h 1.185332 l 0.141111,0.338666 c 0.141111,0.338666 0.366889,0.564444 0.677333,0.564444 0.366889,0 0.620888,-0.254 0.620888,-0.564444 0,-0.169333 -0.141111,-0.508 -0.141111,-0.508 l -0.90311,-2.370664 c -0.163689,-0.423333 -0.423333,-0.677333 -0.987776,-0.677333 -0.564444,0 -0.818444,0.254 -0.987777,0.677333 l -0.903111,2.370664 c 0,0 -0.141111,0.338667 -0.141111,0.508 0,0.310444 0.254,0.564444 0.620889,0.564444 0.310444,0 0.536222,-0.225778 0.677333,-0.564444 z"
       id="path7733"
       style="font-weight:bold;font-size:5.64444px;line-height:1.25;font-family:'Rounds Black';-inkscape-font-specification:'Rounds Black,  Bold';text-align:center;text-anchor:middle;stroke-width:0;stroke:none;stroke-opacity:1;stroke-miterlimit:4;stroke-dasharray:none" />
    <path
       d="m 75.286437,70.82811 0.90311,1.185332 c 0,0 0.225778,0.282222 0.508,0.282222 0.451554,0 0.677333,-0.225778 0.677333,-0.564444 0,-0.225778 -0.225779,-0.508 -0.225779,-0.508 l -0.564443,-0.677332 v -0.05645 c 0,0 0.620889,-0.225777 0.620889,-0.931332 0,-0.762 -0.508,-1.269999 -1.693333,-1.269999 h -1.185333 c -0.395111,0 -0.620887,0.225777 -0.620887,0.564444 v 2.878664 c 0,0.338666 0.225776,0.564444 0.620887,0.564444 0.395111,0 0.620888,-0.225778 0.620888,-0.564444 v -0.90311 z M 74.94777,69.868555 v -0.620889 h 0.564444 c 0.254,0 0.395111,0.141111 0.395111,0.310445 0,0.169333 -0.141111,0.310444 -0.395111,0.310444 z"
       id="path7735"
       style="font-weight:bold;font-size:5.64444px;line-height:1.25;font-family:'Rounds Black';-inkscape-font-specification:'Rounds Black,  Bold';text-align:center;text-anchor:middle;stroke-width:0;stroke:none;stroke-opacity:1;stroke-miterlimit:4;stroke-dasharray:none" />
    <path
       d="m 80.594856,69.417 c 0.395111,0 0.620889,-0.225778 0.620889,-0.564444 0,-0.338667 -0.225778,-0.564444 -0.620889,-0.564444 h -2.144887 c -0.395111,0 -0.620888,0.225777 -0.620888,0.564444 v 2.82222 c 0,0.338666 0.225777,0.564444 0.620888,0.564444 h 2.201332 c 0.39511,0 0.620887,-0.225778 0.620887,-0.564444 0,-0.338667 -0.225778,-0.564444 -0.620887,-0.564444 h -1.580444 v -0.338667 h 1.072444 c 0.338666,0 0.564444,-0.225777 0.564444,-0.507999 0,-0.282222 -0.225779,-0.508 -0.564444,-0.508 H 79.070857 V 69.417 Z"
       id="path7737"
       style="font-weight:bold;font-size:5.64444px;line-height:1.25;font-family:'Rounds Black';-inkscape-font-specification:'Rounds Black,  Bold';text-align:center;text-anchor:middle;stroke-width:0;stroke:none;stroke-opacity:1;stroke-miterlimit:4;stroke-dasharray:none" />
    <path
       d="m 37.87306,75.851661 c 0,-0.338666 -0.225778,-0.564444 -0.620889,-0.564444 -0.395111,0 -0.620888,0.225778 -0.620888,0.564444 v 2.935109 c 0,0.338667 0.225777,0.564444 0.620888,0.564444 0.395111,0 0.620889,-0.225777 0.620889,-0.564444 z"
       id="path7739"
       style="font-weight:bold;font-size:5.64444px;line-height:1.25;font-family:'Rounds Black';-inkscape-font-specification:'Rounds Black,  Bold';text-align:center;text-anchor:middle;stroke-width:0;stroke:none;stroke-opacity:1;stroke-miterlimit:4;stroke-dasharray:none" />
    <path
       d="m 39.902853,77.488549 0.959555,1.298221 c 0.253999,0.366889 0.451555,0.564444 0.790222,0.564444 0.395111,0 0.620888,-0.231422 0.620888,-0.564444 v -2.935109 c 0,-0.338666 -0.225777,-0.564444 -0.620888,-0.564444 -0.395111,0 -0.620889,0.225778 -0.620889,0.564444 v 1.298222 h -0.05644 l -0.959559,-1.298222 c -0.254,-0.366888 -0.451555,-0.564444 -0.790222,-0.564444 -0.39511,0 -0.620888,0.231422 -0.620888,0.564444 v 2.935109 c 0,0.338667 0.225778,0.564444 0.620888,0.564444 0.395111,0 0.620889,-0.225777 0.620889,-0.564444 v -1.298221 z"
       id="path7741"
       style="font-weight:bold;font-size:5.64444px;line-height:1.25;font-family:'Rounds Black';-inkscape-font-specification:'Rounds Black,  Bold';text-align:center;text-anchor:middle;stroke-width:0;stroke:none;stroke-opacity:1;stroke-miterlimit:4;stroke-dasharray:none" />
    <path
       d="m 43.878215,76.47255 v 2.31422 c 0,0.338667 0.225777,0.564444 0.620888,0.564444 0.395111,0 0.620888,-0.225777 0.620888,-0.564444 v -2.31422 h 0.620889 c 0.395111,0 0.620888,-0.225778 0.620888,-0.564444 0,-0.338667 -0.225777,-0.564444 -0.620888,-0.564444 h -2.483554 c -0.395111,0 -0.620888,0.225777 -0.620888,0.564444 0,0.338666 0.225777,0.564444 0.620888,0.564444 z"
       id="path7743"
       style="font-weight:bold;font-size:5.64444px;line-height:1.25;font-family:'Rounds Black';-inkscape-font-specification:'Rounds Black,  Bold';text-align:center;text-anchor:middle;stroke-width:0;stroke:none;stroke-opacity:1;stroke-miterlimit:4;stroke-dasharray:none" />
    <path
       d="m 49.495314,76.47255 c 0.395111,0 0.620888,-0.225778 0.620888,-0.564444 0,-0.338667 -0.225777,-0.564444 -0.620888,-0.564444 h -2.144888 c -0.39511,0 -0.620888,0.225777 -0.620888,0.564444 v 2.82222 c 0,0.338666 0.225778,0.564444 0.620888,0.564444 h 2.201332 c 0.395111,0 0.620888,-0.225778 0.620888,-0.564444 0,-0.338667 -0.225777,-0.564444 -0.620888,-0.564444 h -1.580443 v -0.338667 h 1.072443 c 0.338667,0 0.564444,-0.225777 0.564444,-0.507999 0,-0.282222 -0.225777,-0.508 -0.564444,-0.508 H 47.971316 V 76.47255 Z"
       id="path7745"
       style="font-weight:bold;font-size:5.64444px;line-height:1.25;font-family:'Rounds Black';-inkscape-font-specification:'Rounds Black,  Bold';text-align:center;text-anchor:middle;stroke-width:0;stroke:none;stroke-opacity:1;stroke-miterlimit:4;stroke-dasharray:none" />
    <path
       d="m 52.17951,77.88366 0.90311,1.185332 c 0,0 0.225778,0.282222 0.508,0.282222 0.451555,0 0.677333,-0.225777 0.677333,-0.564444 0,-0.225777 -0.225778,-0.507999 -0.225778,-0.507999 l -0.564443,-0.677333 v -0.05644 c 0,0 0.620889,-0.225777 0.620889,-0.931332 0,-0.762 -0.508001,-1.269999 -1.693332,-1.269999 h -1.185333 c -0.395111,0 -0.620888,0.225777 -0.620888,0.564444 v 2.878664 c 0,0.338667 0.225777,0.564444 0.620888,0.564444 0.395111,0 0.620889,-0.225777 0.620889,-0.564444 v -0.90311 z m -0.338666,-0.959555 v -0.620888 h 0.564444 c 0.253999,0 0.39511,0.141111 0.39511,0.310444 0,0.169333 -0.141111,0.310444 -0.39511,0.310444 z"
       id="path7747"
       style="font-weight:bold;font-size:5.64444px;line-height:1.25;font-family:'Rounds Black';-inkscape-font-specification:'Rounds Black,  Bold';text-align:center;text-anchor:middle;stroke-width:0;stroke:none;stroke-opacity:1;stroke-miterlimit:4;stroke-dasharray:none" />
    <path
       d="m 57.487929,76.47255 c 0.395111,0 0.620889,-0.225778 0.620889,-0.564444 0,-0.338667 -0.225778,-0.564444 -0.620889,-0.564444 h -2.144886 c -0.395111,0 -0.620888,0.225777 -0.620888,0.564444 v 2.878664 c 0,0.338667 0.225777,0.564444 0.620888,0.564444 0.395111,0 0.620888,-0.225777 0.620888,-0.564444 v -0.733777 h 0.846666 c 0.395111,0 0.620888,-0.225778 0.620888,-0.564444 0,-0.338666 -0.225777,-0.564444 -0.620888,-0.564444 H 55.963931 V 76.47255 Z"
       id="path7749"
       style="font-weight:bold;font-size:5.64444px;line-height:1.25;font-family:'Rounds Black';-inkscape-font-specification:'Rounds Black,  Bold';text-align:center;text-anchor:middle;stroke-width:0;stroke:none;stroke-opacity:1;stroke-miterlimit:4;stroke-dasharray:none" />
    <path
       d="m 59.576373,77.432105 0.310444,-0.846666 h 0.05644 l 0.310445,0.846666 z m -0.254,1.015999 h 1.185332 l 0.141111,0.338666 c 0.141112,0.338667 0.366889,0.564444 0.677333,0.564444 0.366889,0 0.620889,-0.254 0.620889,-0.564444 0,-0.169333 -0.141111,-0.507999 -0.141111,-0.507999 l -0.903111,-2.370665 c -0.163688,-0.423333 -0.423333,-0.677333 -0.987777,-0.677333 -0.564445,0 -0.818444,0.254 -0.987778,0.677333 l -0.903109,2.370665 c 0,0 -0.141112,0.338666 -0.141112,0.507999 0,0.310444 0.254,0.564444 0.620888,0.564444 0.310444,0 0.536223,-0.225777 0.677333,-0.564444 z"
       id="path7751"
       style="font-weight:bold;font-size:5.64444px;line-height:1.25;font-family:'Rounds Black';-inkscape-font-specification:'Rounds Black,  Bold';text-align:center;text-anchor:middle;stroke-width:0;stroke:none;stroke-opacity:1;stroke-miterlimit:4;stroke-dasharray:none" />
    <path
       d="m 62.06654,77.714327 c 0,0.959554 0.733777,1.693332 1.890888,1.693332 1.044221,0 1.608664,-0.564444 1.608664,-0.959555 0,-0.310444 -0.197554,-0.508 -0.620887,-0.508 -0.451556,0 -0.508001,0.395111 -0.987777,0.395111 -0.36689,0 -0.620889,-0.254 -0.620889,-0.620888 v -0.790222 c 0,-0.366889 0.253999,-0.620888 0.620889,-0.620888 0.423332,0 0.479776,0.39511 0.931331,0.39511 0.423333,0 0.620889,-0.197555 0.620889,-0.507999 0,-0.395111 -0.564444,-0.959555 -1.552221,-0.959555 -1.157111,0 -1.890888,0.733777 -1.890888,1.693332 z"
       id="path7753"
       style="font-weight:bold;font-size:5.64444px;line-height:1.25;font-family:'Rounds Black';-inkscape-font-specification:'Rounds Black,  Bold';text-align:center;text-anchor:middle;stroke-width:0;stroke:none;stroke-opacity:1;stroke-miterlimit:4;stroke-dasharray:none" />
    <path
       d="m 68.754761,76.47255 c 0.395111,0 0.620887,-0.225778 0.620887,-0.564444 0,-0.338667 -0.225776,-0.564444 -0.620887,-0.564444 h -2.144888 c -0.39511,0 -0.620889,0.225777 -0.620889,0.564444 v 2.82222 c 0,0.338666 0.225779,0.564444 0.620889,0.564444 h 2.201332 c 0.395111,0 0.620889,-0.225778 0.620889,-0.564444 0,-0.338667 -0.225778,-0.564444 -0.620889,-0.564444 h -1.580444 v -0.338667 h 1.072445 c 0.338666,0 0.564443,-0.225777 0.564443,-0.507999 0,-0.282222 -0.225778,-0.508 -0.564443,-0.508 H 67.230761 V 76.47255 Z"
       id="path7755"
       style="font-weight:bold;font-size:5.64444px;line-height:1.25;font-family:'Rounds Black';-inkscape-font-specification:'Rounds Black,  Bold';text-align:center;text-anchor:middle;stroke-width:0;stroke:none;stroke-opacity:1;stroke-miterlimit:4;stroke-dasharray:none" />
    <path
       d="m 72.676766,76.303217 h 0.507999 c 0.225779,0 0.338667,0.112888 0.338667,0.253999 0,0.141111 -0.112888,0.254 -0.338667,0.254 h -0.507999 z m 0,1.41111 H 73.3541 c 0.253998,0 0.39511,0.141111 0.39511,0.310444 0,0.169333 -0.141111,0.310444 -0.39511,0.310444 h -0.677334 z m -0.620889,-2.370665 c -0.39511,0 -0.615244,0.225777 -0.620888,0.564444 v 2.82222 c 0,0.338666 0.225779,0.564444 0.620888,0.564444 h 1.298222 c 1.185332,0 1.693332,-0.508 1.693332,-1.15711 0,-0.762 -0.846666,-0.931333 -0.846666,-0.931333 v -0.05644 c 0,0 0.620888,-0.169334 0.620888,-0.762 0,-0.592666 -0.451555,-1.044221 -1.636888,-1.044221 z"
       id="path7757"
       style="font-weight:bold;font-size:5.64444px;line-height:1.25;font-family:'Rounds Black';-inkscape-font-specification:'Rounds Black,  Bold';text-align:center;text-anchor:middle;stroke-width:0;stroke:none;stroke-opacity:1;stroke-miterlimit:4;stroke-dasharray:none" />
    <path
       d="m 79.165665,76.924105 c 0,-0.959555 -0.733777,-1.693332 -1.890888,-1.693332 -1.15711,0 -1.890887,0.733777 -1.890887,1.693332 v 0.790222 c 0,0.959554 0.733777,1.693332 1.890887,1.693332 1.157111,0 1.890888,-0.733778 1.890888,-1.693332 z m -1.269999,0.790222 c 0,0.451555 -0.282222,0.733777 -0.620888,0.733777 -0.338666,0 -0.620888,-0.282222 -0.620888,-0.733777 v -0.790222 c 0,-0.451555 0.282222,-0.733777 0.620888,-0.733777 0.338666,0 0.620888,0.282222 0.620888,0.733777 z"
       id="path7759"
       style="font-weight:bold;font-size:5.64444px;line-height:1.25;font-family:'Rounds Black';-inkscape-font-specification:'Rounds Black,  Bold';text-align:center;text-anchor:middle;stroke-width:0;stroke:none;stroke-opacity:1;stroke-miterlimit:4;stroke-dasharray:none" />
    <path
       d="m 80.974534,77.432105 0.310444,-0.846666 h 0.05644 l 0.310445,0.846666 z m -0.254,1.015999 h 1.185332 l 0.14111,0.338666 c 0.141111,0.338667 0.366889,0.564444 0.677334,0.564444 0.366889,0 0.620889,-0.254 0.620889,-0.564444 0,-0.169333 -0.141111,-0.507999 -0.141111,-0.507999 l -0.903111,-2.370665 c -0.163689,-0.423333 -0.423333,-0.677333 -0.987777,-0.677333 -0.564444,0 -0.818444,0.254 -0.987777,0.677333 l -0.90311,2.370665 c 0,0 -0.141111,0.338666 -0.141111,0.507999 0,0.310444 0.254,0.564444 0.620888,0.564444 0.310444,0 0.536222,-0.225777 0.677333,-0.564444 z"
       id="path7761"
       style="font-weight:bold;font-size:5.64444px;line-height:1.25;font-family:'Rounds Black';-inkscape-font-specification:'Rounds Black,  Bold';text-align:center;text-anchor:middle;stroke-width:0;stroke:none;stroke-opacity:1;stroke-miterlimit:4;stroke-dasharray:none" />
    <path
       d="m 85.296499,77.88366 0.90311,1.185332 c 0,0 0.225778,0.282222 0.508,0.282222 0.451555,0 0.677333,-0.225777 0.677333,-0.564444 0,-0.225777 -0.225778,-0.507999 -0.225778,-0.507999 L 86.59472,77.601438 v -0.05644 c 0,0 0.620889,-0.225777 0.620889,-0.931332 0,-0.762 -0.507999,-1.269999 -1.693331,-1.269999 h -1.185333 c -0.395111,0 -0.620888,0.225777 -0.620888,0.564444 v 2.878664 c 0,0.338667 0.225777,0.564444 0.620888,0.564444 0.395111,0 0.620889,-0.225777 0.620889,-0.564444 v -0.90311 z m -0.338666,-0.959555 v -0.620888 h 0.564444 c 0.253999,0 0.39511,0.141111 0.39511,0.310444 0,0.169333 -0.141111,0.310444 -0.39511,0.310444 z"
       id="path7763"
       style="font-weight:bold;font-size:5.64444px;line-height:1.25;font-family:'Rounds Black';-inkscape-font-specification:'Rounds Black,  Bold';text-align:center;text-anchor:middle;stroke-width:0;stroke:none;stroke-opacity:1;stroke-miterlimit:4;stroke-dasharray:none" />
    <path
       d="m 91.395139,77.036994 c 0,-0.959555 -0.733778,-1.693332 -1.947333,-1.693332 H 88.46003 c -0.395111,0 -0.620888,0.225777 -0.620888,0.564444 v 2.82222 c 0,0.338666 0.225777,0.564444 0.620888,0.564444 h 0.987776 c 1.213555,0 1.947333,-0.733777 1.947333,-1.693332 z m -1.947333,-0.677333 c 0.395111,0 0.677334,0.282222 0.677334,0.677333 v 0.564444 c 0,0.395111 -0.282223,0.677333 -0.677334,0.677333 h -0.366888 v -1.91911 z"
       id="path7765"
       style="font-weight:bold;font-size:5.64444px;line-height:1.25;font-family:'Rounds Black';-inkscape-font-specification:'Rounds Black,  Bold';text-align:center;text-anchor:middle;stroke-width:0;stroke:none;stroke-opacity:1;stroke-miterlimit:4;stroke-dasharray:none" />
    <path
       style="fill:none;stroke:#000000;stroke-width:1;stroke-linecap:round;stroke-linejoin:round;stroke-miterlimit:4;stroke-dasharray:none;stroke-opacity:1"
       d="m 89.207397,64.212712 6.365136,4e-6 v 19.157456 l -63.118645,-10e-7 V 64.212715 l 53.539917,10e-7"
       id="path6881"
       sodipodi:nodetypes="cccccc" />
    <circle
       style="fill:#000000;stroke-width:0;stroke-linecap:round;stroke-linejoin:round;stroke-miterlimit:4;stroke-dasharray:none;stroke-dashoffset:0.400025;stroke:none;stroke-opacity:1"
       id="path8291"
       cx="86.213432"
       cy="64.402916"
       r="2" />
    <path
       style="fill:none;stroke:#000000;stroke-width:1;stroke-linecap:round;stroke-linejoin:round;stroke-miterlimit:4;stroke-dasharray:none;stroke-dashoffset:0.400025;stroke-opacity:1"
       id="path8293"
       sodipodi:type="arc"
       sodipodi:cx="86.213432"
       sodipodi:cy="64.402916"
       sodipodi:rx="3"
       sodipodi:ry="3"
       sodipodi:start="4.1887902"
       sodipodi:end="2.0943951"
       sodipodi:arc-type="arc"
       d="m 84.713432,61.80484 a 3,3 0 0 1 3.798134,0.669713 3,3 0 0 1 0,3.856726 3,3 0 0 1 -3.798134,0.669713"
       sodipodi:open="true" />
  </g>
</svg>
