<?xml version="1.0" encoding="UTF-8" standalone="no"?>
<!-- Created with Inkscape (http://www.inkscape.org/) -->

<svg
   width="105.41826mm"
   height="21.783649mm"
   viewBox="0 0 105.41826 21.783649"
   version="1.1"
   id="svg5"
   inkscape:version="1.1.1 (c3084ef, 2021-09-22)"
   sodipodi:docname="title-version.svg"
   xmlns:inkscape="http://www.inkscape.org/namespaces/inkscape"
   xmlns:sodipodi="http://sodipodi.sourceforge.net/DTD/sodipodi-0.dtd"
   xmlns="http://www.w3.org/2000/svg"
   xmlns:svg="http://www.w3.org/2000/svg">
  <sodipodi:namedview
     id="namedview7"
     pagecolor="#505050"
     bordercolor="#eeeeee"
     borderopacity="1"
     inkscape:pageshadow="0"
     inkscape:pageopacity="0"
     inkscape:pagecheckerboard="0"
     inkscape:document-units="mm"
     showgrid="false"
     showguides="true"
     inkscape:guide-bbox="true"
     inkscape:zoom="2.1156214"
     inkscape:cx="231.3741"
     inkscape:cy="16.307266"
     inkscape:window-width="1800"
     inkscape:window-height="1041"
     inkscape:window-x="0"
     inkscape:window-y="44"
     inkscape:window-maximized="1"
     inkscape:current-layer="layer1"
     inkscape:snap-intersection-paths="true"
     inkscape:object-paths="true"
     inkscape:snap-bbox="true"
     inkscape:snap-bbox-edge-midpoints="true"
     fit-margin-top="0"
     fit-margin-left="0"
     fit-margin-right="0"
     fit-margin-bottom="0"
     showborder="false" />
  <defs
     id="defs2" />
  <g
     inkscape:label="Layer 1"
     inkscape:groupmode="layer"
     id="layer1"
     transform="translate(-10.56808,-91.601241)">
    <text
       xml:space="preserve"
       style="font-weight:bold;font-size:5.64444px;line-height:1.25;font-family:'Rounds Black';-inkscape-font-specification:'Rounds Black,  Bold';text-align:center;text-anchor:middle;stroke-width:0.264583"
       x="55.700169"
       y="59.144318"
       id="text7004"><tspan
         sodipodi:role="line"
         id="tspan7002"
         style="stroke-width:0.264583"
         x="55.700169"
         y="59.144318" /></text>
    <path
       style="fill:none;stroke:#000000;stroke-width:1;stroke-linecap:butt;stroke-linejoin:round;stroke-miterlimit:4;stroke-dasharray:none;stroke-opacity:1"
       d="m 11.068066,104.96387 3.160531,-12.862622 101.257753,-7e-6 -3.16053,12.862619 z"
       id="path11294"
       sodipodi:nodetypes="ccccc" />
    <g
       aria-label="HARDWARE INTERFACE BOARD"
       id="text14153"
       style="font-weight:bold;font-size:5.64444px;line-height:1.25;font-family:'Arial Black';-inkscape-font-specification:'Arial Black,  Bold';text-align:center;text-anchor:middle;stroke-width:0.264583">
      <path
         d="m 18.957989,97.065009 c 0,-0.338666 -0.225778,-0.564444 -0.620889,-0.564444 -0.395111,0 -0.620888,0.225778 -0.620888,0.564444 v 2.935111 c 0,0.33866 0.225777,0.56444 0.620888,0.56444 0.395111,0 0.620889,-0.22578 0.620889,-0.56444 v -0.903112 h 1.128888 v 0.903112 c 0,0.33866 0.225777,0.56444 0.620888,0.56444 0.395111,0 0.620888,-0.22578 0.620888,-0.56444 v -2.935111 c 0,-0.338666 -0.225777,-0.564444 -0.620888,-0.564444 -0.395111,0 -0.620888,0.225778 -0.620888,0.564444 v 0.959555 h -1.128888 z"
         style="font-family:'Rounds Black';-inkscape-font-specification:'Rounds Black,  Bold'"
         id="path16034" />
      <path
         d="m 23.386228,98.645452 0.310444,-0.846666 h 0.05645 l 0.310444,0.846666 z m -0.254,1.016 h 1.185333 l 0.141111,0.338668 c 0.141111,0.33866 0.366889,0.56444 0.677333,0.56444 0.366888,0 0.620888,-0.254 0.620888,-0.56444 0,-0.169335 -0.141111,-0.508002 -0.141111,-0.508002 l -0.90311,-2.370664 c -0.163689,-0.423333 -0.423333,-0.677333 -0.987777,-0.677333 -0.564444,0 -0.818444,0.254 -0.987777,0.677333 l -0.903111,2.370664 c 0,0 -0.141111,0.338667 -0.141111,0.508002 0,0.31044 0.254,0.56444 0.620889,0.56444 0.310444,0 0.536221,-0.22578 0.677332,-0.56444 z"
         style="font-family:'Rounds Black';-inkscape-font-specification:'Rounds Black,  Bold'"
         id="path16036" />
      <path
         d="m 27.708194,99.097008 0.90311,1.185332 c 0,0 0.225778,0.28222 0.508,0.28222 0.451555,0 0.677333,-0.22578 0.677333,-0.56444 0,-0.22578 -0.225778,-0.508002 -0.225778,-0.508002 l -0.564444,-0.677332 v -0.05644 c 0,0 0.620889,-0.225777 0.620889,-0.931332 0,-0.762 -0.508,-1.269999 -1.693332,-1.269999 h -1.185333 c -0.395111,0 -0.620888,0.225777 -0.620888,0.564444 v 2.878661 c 0,0.33866 0.225777,0.56444 0.620888,0.56444 0.395111,0 0.620889,-0.22578 0.620889,-0.56444 v -0.903107 z m -0.338666,-0.959555 v -0.620889 h 0.564444 c 0.253999,0 0.39511,0.141111 0.39511,0.310445 0,0.169333 -0.141111,0.310444 -0.39511,0.310444 z"
         style="font-family:'Rounds Black';-inkscape-font-specification:'Rounds Black,  Bold'"
         id="path16038" />
      <path
         d="m 33.806835,98.250342 c 0,-0.959555 -0.733777,-1.693332 -1.947332,-1.693332 h -0.987777 c -0.395111,0 -0.620888,0.225777 -0.620888,0.564444 v 2.82222 c 0,0.338666 0.225777,0.564446 0.620888,0.564446 h 0.987777 c 1.213555,0 1.947332,-0.73378 1.947332,-1.693334 z m -1.947332,-0.677333 c 0.395111,0 0.677333,0.282222 0.677333,0.677333 v 0.564444 c 0,0.39511 -0.282222,0.677332 -0.677333,0.677332 h -0.366888 v -1.919109 z"
         style="font-family:'Rounds Black';-inkscape-font-specification:'Rounds Black,  Bold'"
         id="path16040" />
      <path
         d="m 37.133527,98.476119 0.310444,1.467555 c 0.107245,0.395106 0.395111,0.677336 0.959555,0.677336 0.564444,0 0.852311,-0.28223 0.959555,-0.677336 l 0.649111,-2.370665 c 0,0 0.112888,-0.338667 0.112888,-0.508 0,-0.310444 -0.253999,-0.564444 -0.620888,-0.564444 -0.395111,0 -0.620888,0.225778 -0.705555,0.564444 l -0.451555,1.862665 h -0.05645 l -0.366888,-1.749776 c -0.09031,-0.423333 -0.338667,-0.677333 -0.818444,-0.677333 -0.479778,0 -0.728133,0.254 -0.818444,0.677333 l -0.366889,1.749776 h -0.05644 l -0.451555,-1.862665 c -0.08467,-0.338666 -0.310444,-0.564444 -0.705555,-0.564444 -0.366889,0 -0.620889,0.254 -0.620889,0.564444 0,0.169333 0.112889,0.508 0.112889,0.508 l 0.649111,2.370665 c 0.107244,0.395106 0.395111,0.677336 0.959555,0.677336 0.564444,0 0.85231,-0.28223 0.959554,-0.677336 l 0.310445,-1.467555 z"
         style="font-family:'Rounds Black';-inkscape-font-specification:'Rounds Black,  Bold'"
         id="path16042" />
      <path
         d="m 41.763732,98.645452 0.310444,-0.846666 h 0.05644 l 0.310444,0.846666 z m -0.254,1.016 h 1.185333 l 0.141111,0.338668 c 0.141111,0.33866 0.366888,0.56444 0.677333,0.56444 0.366888,0 0.620888,-0.254 0.620888,-0.56444 0,-0.169335 -0.141111,-0.508002 -0.141111,-0.508002 l -0.90311,-2.370664 c -0.163689,-0.423333 -0.423333,-0.677333 -0.987777,-0.677333 -0.564444,0 -0.818444,0.254 -0.987777,0.677333 l -0.903111,2.370664 c 0,0 -0.141111,0.338667 -0.141111,0.508002 0,0.31044 0.254,0.56444 0.620889,0.56444 0.310444,0 0.536221,-0.22578 0.677332,-0.56444 z"
         style="font-family:'Rounds Black';-inkscape-font-specification:'Rounds Black,  Bold'"
         id="path16044" />
      <path
         d="m 46.085697,99.097008 0.90311,1.185332 c 0,0 0.225778,0.28222 0.508,0.28222 0.451555,0 0.677332,-0.22578 0.677332,-0.56444 0,-0.22578 -0.225777,-0.508002 -0.225777,-0.508002 l -0.564444,-0.677332 v -0.05644 c 0,0 0.620888,-0.225777 0.620888,-0.931332 0,-0.762 -0.507999,-1.269999 -1.693332,-1.269999 h -1.185332 c -0.395111,0 -0.620889,0.225777 -0.620889,0.564444 v 2.878661 c 0,0.33866 0.225778,0.56444 0.620889,0.56444 0.39511,0 0.620888,-0.22578 0.620888,-0.56444 V 99.097008 Z M 45.74703,98.137453 v -0.620889 h 0.564444 c 0.254,0 0.395111,0.141111 0.395111,0.310445 0,0.169333 -0.141111,0.310444 -0.395111,0.310444 z"
         style="font-family:'Rounds Black';-inkscape-font-specification:'Rounds Black,  Bold'"
         id="path16046" />
      <path
         d="m 51.394116,97.685898 c 0.395111,0 0.620888,-0.225778 0.620888,-0.564444 0,-0.338667 -0.225777,-0.564444 -0.620888,-0.564444 h -2.144887 c -0.395111,0 -0.620889,0.225777 -0.620889,0.564444 v 2.82222 c 0,0.338666 0.225778,0.564446 0.620889,0.564446 h 2.201331 c 0.395111,0 0.620889,-0.22578 0.620889,-0.564446 0,-0.338667 -0.225778,-0.564444 -0.620889,-0.564444 h -1.580443 v -0.338667 h 1.072444 c 0.338666,0 0.564444,-0.225777 0.564444,-0.507999 0,-0.282222 -0.225778,-0.508 -0.564444,-0.508 h -1.072444 v -0.338666 z"
         style="font-family:'Rounds Black';-inkscape-font-specification:'Rounds Black,  Bold'"
         id="path16048" />
      <path
         d="m 55.31612,97.065009 c 0,-0.338666 -0.225778,-0.564444 -0.620888,-0.564444 -0.395111,0 -0.620889,0.225778 -0.620889,0.564444 v 2.935111 c 0,0.33866 0.225778,0.56444 0.620889,0.56444 0.39511,0 0.620888,-0.22578 0.620888,-0.56444 z"
         style="font-family:'Rounds Black';-inkscape-font-specification:'Rounds Black,  Bold'"
         id="path16050" />
      <path
         d="m 57.345915,98.701897 0.959555,1.298223 c 0.254,0.36689 0.451555,0.56444 0.790221,0.56444 0.395111,0 0.620889,-0.23142 0.620889,-0.56444 v -2.935111 c 0,-0.338666 -0.225778,-0.564444 -0.620889,-0.564444 -0.39511,0 -0.620888,0.225778 -0.620888,0.564444 v 1.298221 h -0.05644 l -0.959555,-1.298221 c -0.254,-0.366888 -0.451556,-0.564444 -0.790222,-0.564444 -0.395111,0 -0.620888,0.231422 -0.620888,0.564444 v 2.935111 c 0,0.33866 0.225777,0.56444 0.620888,0.56444 0.395111,0 0.620889,-0.22578 0.620889,-0.56444 v -1.298223 z"
         style="font-family:'Rounds Black';-inkscape-font-specification:'Rounds Black,  Bold'"
         id="path16052" />
      <path
         d="m 61.321275,97.685898 v 2.314222 c 0,0.33866 0.225778,0.56444 0.620888,0.56444 0.395111,0 0.620889,-0.22578 0.620889,-0.56444 v -2.314222 h 0.620888 c 0.395111,0 0.620889,-0.225778 0.620889,-0.564444 0,-0.338667 -0.225778,-0.564444 -0.620889,-0.564444 h -2.483553 c -0.395111,0 -0.620889,0.225777 -0.620889,0.564444 0,0.338666 0.225778,0.564444 0.620889,0.564444 z"
         style="font-family:'Rounds Black';-inkscape-font-specification:'Rounds Black,  Bold'"
         id="path16054" />
      <path
         d="m 66.938374,97.685898 c 0.395111,0 0.620888,-0.225778 0.620888,-0.564444 0,-0.338667 -0.225777,-0.564444 -0.620888,-0.564444 h -2.144887 c -0.395111,0 -0.620889,0.225777 -0.620889,0.564444 v 2.82222 c 0,0.338666 0.225778,0.564446 0.620889,0.564446 h 2.201331 c 0.395111,0 0.620889,-0.22578 0.620889,-0.564446 0,-0.338667 -0.225778,-0.564444 -0.620889,-0.564444 h -1.580443 v -0.338667 h 1.072444 c 0.338666,0 0.564444,-0.225777 0.564444,-0.507999 0,-0.282222 -0.225778,-0.508 -0.564444,-0.508 h -1.072444 v -0.338666 z"
         style="font-family:'Rounds Black';-inkscape-font-specification:'Rounds Black,  Bold'"
         id="path16056" />
      <path
         d="m 69.622571,99.097008 0.903111,1.185332 c 0,0 0.225777,0.28222 0.507999,0.28222 0.451556,0 0.677333,-0.22578 0.677333,-0.56444 0,-0.22578 -0.225777,-0.508002 -0.225777,-0.508002 l -0.564444,-0.677332 v -0.05644 c 0,0 0.620888,-0.225777 0.620888,-0.931332 0,-0.762 -0.508,-1.269999 -1.693332,-1.269999 h -1.185333 c -0.39511,0 -0.620888,0.225777 -0.620888,0.564444 v 2.878661 c 0,0.33866 0.225778,0.56444 0.620888,0.56444 0.395111,0 0.620889,-0.22578 0.620889,-0.56444 v -0.903107 z m -0.338666,-0.959555 v -0.620889 h 0.564444 c 0.254,0 0.395111,0.141111 0.395111,0.310445 0,0.169333 -0.141111,0.310444 -0.395111,0.310444 z"
         style="font-family:'Rounds Black';-inkscape-font-specification:'Rounds Black,  Bold'"
         id="path16058" />
      <path
         d="m 74.930993,97.685898 c 0.39511,0 0.620888,-0.225778 0.620888,-0.564444 0,-0.338667 -0.225778,-0.564444 -0.620888,-0.564444 h -2.144888 c -0.395111,0 -0.620888,0.225777 -0.620888,0.564444 v 2.878666 c 0,0.33866 0.225777,0.56444 0.620888,0.56444 0.395111,0 0.620889,-0.22578 0.620889,-0.56444 v -0.733779 h 0.846666 c 0.395111,0 0.620888,-0.225778 0.620888,-0.564444 0,-0.338667 -0.225777,-0.564444 -0.620888,-0.564444 h -0.846666 v -0.451555 z"
         style="font-family:'Rounds Black';-inkscape-font-specification:'Rounds Black,  Bold'"
         id="path16060" />
      <path
         d="m 77.019435,98.645452 0.310444,-0.846666 h 0.05644 l 0.310444,0.846666 z m -0.254,1.016 h 1.185333 l 0.141111,0.338668 c 0.141111,0.33866 0.366888,0.56444 0.677333,0.56444 0.366888,0 0.620888,-0.254 0.620888,-0.56444 0,-0.169335 -0.141111,-0.508002 -0.141111,-0.508002 l -0.90311,-2.370664 c -0.163689,-0.423333 -0.423333,-0.677333 -0.987777,-0.677333 -0.564444,0 -0.818444,0.254 -0.987778,0.677333 l -0.90311,2.370664 c 0,0 -0.141111,0.338667 -0.141111,0.508002 0,0.31044 0.254,0.56444 0.620888,0.56444 0.310445,0 0.536222,-0.22578 0.677333,-0.56444 z"
         style="font-family:'Rounds Black';-inkscape-font-specification:'Rounds Black,  Bold'"
         id="path16062" />
      <path
         d="m 79.509602,98.927674 c 0,0.959555 0.733778,1.693336 1.890888,1.693336 1.044221,0 1.608665,-0.56445 1.608665,-0.959558 0,-0.310445 -0.197555,-0.508 -0.620888,-0.508 -0.451555,0 -0.508,0.395111 -0.987777,0.395111 -0.366889,0 -0.620889,-0.254 -0.620889,-0.620889 v -0.790221 c 0,-0.366889 0.254,-0.620889 0.620889,-0.620889 0.423333,0 0.479777,0.395111 0.931332,0.395111 0.423333,0 0.620889,-0.197555 0.620889,-0.507999 0,-0.395111 -0.564444,-0.959555 -1.552221,-0.959555 -1.15711,0 -1.890888,0.733777 -1.890888,1.693332 z"
         style="font-family:'Rounds Black';-inkscape-font-specification:'Rounds Black,  Bold'"
         id="path16064" />
      <path
         d="m 86.197823,97.685898 c 0.395111,0 0.620888,-0.225778 0.620888,-0.564444 0,-0.338667 -0.225777,-0.564444 -0.620888,-0.564444 h -2.144887 c -0.395111,0 -0.620889,0.225777 -0.620889,0.564444 v 2.82222 c 0,0.338666 0.225778,0.564446 0.620889,0.564446 h 2.201331 c 0.395111,0 0.620889,-0.22578 0.620889,-0.564446 0,-0.338667 -0.225778,-0.564444 -0.620889,-0.564444 h -1.580443 v -0.338667 h 1.072444 c 0.338666,0 0.564444,-0.225777 0.564444,-0.507999 0,-0.282222 -0.225778,-0.508 -0.564444,-0.508 h -1.072444 v -0.338666 z"
         style="font-family:'Rounds Black';-inkscape-font-specification:'Rounds Black,  Bold'"
         id="path16066" />
      <path
         d="m 90.119823,97.516564 h 0.508 c 0.225778,0 0.338666,0.112889 0.338666,0.254 0,0.141111 -0.112888,0.254 -0.338666,0.254 h -0.508 z m 0,1.41111 h 0.677333 c 0.254,0 0.395111,0.141111 0.395111,0.310445 0,0.169333 -0.141111,0.310444 -0.395111,0.310444 H 90.119823 Z M 89.498935,96.55701 c -0.395111,0 -0.615244,0.225777 -0.620889,0.564444 v 2.82222 c 0,0.338666 0.225778,0.564446 0.620889,0.564446 h 1.298221 c 1.185333,0 1.693332,-0.508 1.693332,-1.157113 0,-0.761999 -0.846666,-0.931332 -0.846666,-0.931332 v -0.05644 c 0,0 0.620889,-0.169333 0.620889,-0.761999 0,-0.592666 -0.451556,-1.044221 -1.636888,-1.044221 z"
         style="font-family:'Rounds Black';-inkscape-font-specification:'Rounds Black,  Bold'"
         id="path16068" />
      <path
         d="m 96.60873,98.137453 c 0,-0.959555 -0.733778,-1.693332 -1.890888,-1.693332 -1.15711,0 -1.890887,0.733777 -1.890887,1.693332 v 0.790221 c 0,0.959555 0.733777,1.693336 1.890887,1.693336 1.15711,0 1.890888,-0.733781 1.890888,-1.693336 z m -1.269999,0.790221 c 0,0.451556 -0.282222,0.733778 -0.620889,0.733778 -0.338666,0 -0.620888,-0.282222 -0.620888,-0.733778 v -0.790221 c 0,-0.451555 0.282222,-0.733777 0.620888,-0.733777 0.338667,0 0.620889,0.282222 0.620889,0.733777 z"
         style="font-family:'Rounds Black';-inkscape-font-specification:'Rounds Black,  Bold'"
         id="path16070" />
      <path
         d="m 98.417594,98.645452 0.310444,-0.846666 h 0.05644 l 0.310444,0.846666 z m -0.254,1.016 h 1.185333 l 0.141111,0.338668 c 0.141111,0.33866 0.366888,0.56444 0.677332,0.56444 0.36689,0 0.62089,-0.254 0.62089,-0.56444 0,-0.169335 -0.14111,-0.508002 -0.14111,-0.508002 l -0.903112,-2.370664 c -0.163689,-0.423333 -0.423333,-0.677333 -0.987777,-0.677333 -0.564444,0 -0.818444,0.254 -0.987777,0.677333 l -0.903111,2.370664 c 0,0 -0.141111,0.338667 -0.141111,0.508002 0,0.31044 0.254,0.56444 0.620889,0.56444 0.310444,0 0.536221,-0.22578 0.677332,-0.56444 z"
         style="font-family:'Rounds Black';-inkscape-font-specification:'Rounds Black,  Bold'"
         id="path16072" />
      <path
         d="m 102.73956,99.097008 0.90311,1.185332 c 0,0 0.22577,0.28222 0.508,0.28222 0.45155,0 0.67733,-0.22578 0.67733,-0.56444 0,-0.22578 -0.22578,-0.508002 -0.22578,-0.508002 l -0.56444,-0.677332 v -0.05644 c 0,0 0.62089,-0.225777 0.62089,-0.931332 0,-0.762 -0.508,-1.269999 -1.69334,-1.269999 H 101.78 c -0.39511,0 -0.62089,0.225777 -0.62089,0.564444 v 2.878661 c 0,0.33866 0.22578,0.56444 0.62089,0.56444 0.39511,0 0.62089,-0.22578 0.62089,-0.56444 v -0.903107 z m -0.33867,-0.959555 v -0.620889 h 0.56444 c 0.254,0 0.39512,0.141111 0.39512,0.310445 0,0.169333 -0.14112,0.310444 -0.39512,0.310444 z"
         style="font-family:'Rounds Black';-inkscape-font-specification:'Rounds Black,  Bold'"
         id="path16074" />
      <path
         d="m 108.8382,98.250342 c 0,-0.959555 -0.73377,-1.693332 -1.94733,-1.693332 h -0.98778 c -0.39511,0 -0.62088,0.225777 -0.62088,0.564444 v 2.82222 c 0,0.338666 0.22577,0.564446 0.62088,0.564446 h 0.98778 c 1.21356,0 1.94733,-0.73378 1.94733,-1.693334 z m -1.94733,-0.677333 c 0.39511,0 0.67733,0.282222 0.67733,0.677333 v 0.564444 c 0,0.39511 -0.28222,0.677332 -0.67733,0.677332 h -0.36689 v -1.919109 z"
         style="font-family:'Rounds Black';-inkscape-font-specification:'Rounds Black,  Bold'"
         id="path16076" />
    </g>
  </g>
</svg>
